<svg width="512" height="512" viewBox="0 0 512 512" fill="none" xmlns="http://www.w3.org/2000/svg" role="img" aria-labelledby="title desc">
  <title id="title">WaveBase Logo</title>
  <desc id="desc">Hexagon containing a stylized wave and base shape</desc>
  <defs>
    <linearGradient id="wb-grad" x1="0" y1="0" x2="1" y2="1">
      <stop offset="0%" stop-color="#56E0D6"/>
      <stop offset="100%" stop-color="#14B8A6"/>
    </linearGradient>
  </defs>
  <g>
    <!-- Base fill -->
    <path d="M86 170v154l170 98 170-98V170l-86 50c-14 8-31 6-43-4l-21-18c-13-11-33-11-46 0l-79 68c-13 11-33 11-46 0L86 170z" fill="url(#wb-grad)"/>
    <!-- Wave mark -->
    <path d="M108 276l40 34c12 10 29 10 41 0l79-68c12-10 29-10 41 0l21 18c12 10 29 12 43 4l31-18" fill="none" stroke="#174B73" stroke-width="24" stroke-linecap="round" stroke-linejoin="round"/>
    <!-- Outer hexagon -->
    <path d="M256 30l170 98v196l-170 98-170-98V128L256 30z" fill="none" stroke="#174B73" stroke-width="28" stroke-linejoin="round"/>
  </g>
</svg>

